<mxfile host="app.diagrams.net" agent="Mozilla/5.0 (Windows NT 10.0; Win64; x64) AppleWebKit/537.36 (KHTML, like Gecko) Chrome/131.0.0.0 Safari/537.36" version="25.0.3">
  <diagram name="Страница 1" id="tsVzY9tAOrzdKIn3t2cB">
    <mxGraphModel dx="1500" dy="746" grid="1" gridSize="10" guides="1" tooltips="1" connect="1" arrows="1" fold="1" page="1" pageScale="1" pageWidth="827" pageHeight="1169" math="0" shadow="0">
      <root>
        <mxCell id="0" />
        <mxCell id="1" parent="0" />
        <mxCell id="anB-D9dIyMDaOdh5xR8B-44" value="Клиент" style="swimlane;fontStyle=1;align=center;verticalAlign=top;childLayout=stackLayout;horizontal=1;startSize=26;horizontalStack=0;resizeParent=1;resizeParentMax=0;resizeLast=0;collapsible=1;marginBottom=0;" vertex="1" parent="1">
          <mxGeometry x="770" y="820" width="276" height="160" as="geometry">
            <mxRectangle x="380" y="120" width="100" height="30" as="alternateBounds" />
          </mxGeometry>
        </mxCell>
        <mxCell id="anB-D9dIyMDaOdh5xR8B-45" value="+ id:int&#xa;+ Info:info&#xa;" style="text;strokeColor=none;fillColor=none;align=left;verticalAlign=top;spacingLeft=4;spacingRight=4;overflow=hidden;rotatable=0;points=[[0,0.5],[1,0.5]];portConstraint=eastwest;" vertex="1" parent="anB-D9dIyMDaOdh5xR8B-44">
          <mxGeometry y="26" width="276" height="44" as="geometry" />
        </mxCell>
        <mxCell id="anB-D9dIyMDaOdh5xR8B-46" value="" style="line;strokeWidth=1;fillColor=none;align=left;verticalAlign=middle;spacingTop=-1;spacingLeft=3;spacingRight=3;rotatable=0;labelPosition=right;points=[];portConstraint=eastwest;strokeColor=inherit;" vertex="1" parent="anB-D9dIyMDaOdh5xR8B-44">
          <mxGeometry y="70" width="276" height="8" as="geometry" />
        </mxCell>
        <mxCell id="anB-D9dIyMDaOdh5xR8B-47" value="+ addClient (nameOfClient:string;countMoney:int;&#xa;numberOfRooms:int;classOfApartments:string;&#xa;timeOfLiving:uint): info&#xa;+ makeRequest()&#xa;+ watchCheque()" style="text;strokeColor=none;fillColor=none;align=left;verticalAlign=top;spacingLeft=4;spacingRight=4;overflow=hidden;rotatable=0;points=[[0,0.5],[1,0.5]];portConstraint=eastwest;" vertex="1" parent="anB-D9dIyMDaOdh5xR8B-44">
          <mxGeometry y="78" width="276" height="82" as="geometry" />
        </mxCell>
        <mxCell id="anB-D9dIyMDaOdh5xR8B-48" value="Система" style="swimlane;fontStyle=1;align=center;verticalAlign=top;childLayout=stackLayout;horizontal=1;startSize=26;horizontalStack=0;resizeParent=1;resizeParentMax=0;resizeLast=0;collapsible=1;marginBottom=0;" vertex="1" parent="1">
          <mxGeometry x="584" y="680" width="160" height="116" as="geometry">
            <mxRectangle x="380" y="120" width="100" height="30" as="alternateBounds" />
          </mxGeometry>
        </mxCell>
        <mxCell id="anB-D9dIyMDaOdh5xR8B-49" value="+ rooms:List&lt;rooms&gt;" style="text;strokeColor=none;fillColor=none;align=left;verticalAlign=top;spacingLeft=4;spacingRight=4;overflow=hidden;rotatable=0;points=[[0,0.5],[1,0.5]];portConstraint=eastwest;" vertex="1" parent="anB-D9dIyMDaOdh5xR8B-48">
          <mxGeometry y="26" width="160" height="34" as="geometry" />
        </mxCell>
        <mxCell id="anB-D9dIyMDaOdh5xR8B-50" value="" style="line;strokeWidth=1;fillColor=none;align=left;verticalAlign=middle;spacingTop=-1;spacingLeft=3;spacingRight=3;rotatable=0;labelPosition=right;points=[];portConstraint=eastwest;strokeColor=inherit;" vertex="1" parent="anB-D9dIyMDaOdh5xR8B-48">
          <mxGeometry y="60" width="160" height="8" as="geometry" />
        </mxCell>
        <mxCell id="anB-D9dIyMDaOdh5xR8B-51" value="+ giveСheque()" style="text;strokeColor=none;fillColor=none;align=left;verticalAlign=top;spacingLeft=4;spacingRight=4;overflow=hidden;rotatable=0;points=[[0,0.5],[1,0.5]];portConstraint=eastwest;" vertex="1" parent="anB-D9dIyMDaOdh5xR8B-48">
          <mxGeometry y="68" width="160" height="48" as="geometry" />
        </mxCell>
        <mxCell id="anB-D9dIyMDaOdh5xR8B-52" value="Администатор" style="swimlane;fontStyle=1;align=center;verticalAlign=top;childLayout=stackLayout;horizontal=1;startSize=26;horizontalStack=0;resizeParent=1;resizeParentMax=0;resizeLast=0;collapsible=1;marginBottom=0;" vertex="1" parent="1">
          <mxGeometry x="380" y="820" width="160" height="116" as="geometry">
            <mxRectangle x="380" y="120" width="100" height="30" as="alternateBounds" />
          </mxGeometry>
        </mxCell>
        <mxCell id="anB-D9dIyMDaOdh5xR8B-53" value="+ nameOfAdmin:string" style="text;strokeColor=none;fillColor=none;align=left;verticalAlign=top;spacingLeft=4;spacingRight=4;overflow=hidden;rotatable=0;points=[[0,0.5],[1,0.5]];portConstraint=eastwest;" vertex="1" parent="anB-D9dIyMDaOdh5xR8B-52">
          <mxGeometry y="26" width="160" height="24" as="geometry" />
        </mxCell>
        <mxCell id="anB-D9dIyMDaOdh5xR8B-54" value="" style="line;strokeWidth=1;fillColor=none;align=left;verticalAlign=middle;spacingTop=-1;spacingLeft=3;spacingRight=3;rotatable=0;labelPosition=right;points=[];portConstraint=eastwest;strokeColor=inherit;" vertex="1" parent="anB-D9dIyMDaOdh5xR8B-52">
          <mxGeometry y="50" width="160" height="8" as="geometry" />
        </mxCell>
        <mxCell id="anB-D9dIyMDaOdh5xR8B-55" value="+ checkRequest()&#xa;+ watchСheque()" style="text;strokeColor=none;fillColor=none;align=left;verticalAlign=top;spacingLeft=4;spacingRight=4;overflow=hidden;rotatable=0;points=[[0,0.5],[1,0.5]];portConstraint=eastwest;" vertex="1" parent="anB-D9dIyMDaOdh5xR8B-52">
          <mxGeometry y="58" width="160" height="58" as="geometry" />
        </mxCell>
        <mxCell id="anB-D9dIyMDaOdh5xR8B-56" value="Номер" style="swimlane;fontStyle=1;align=center;verticalAlign=top;childLayout=stackLayout;horizontal=1;startSize=26;horizontalStack=0;resizeParent=1;resizeParentMax=0;resizeLast=0;collapsible=1;marginBottom=0;" vertex="1" parent="1">
          <mxGeometry x="290" y="1020" width="330" height="118" as="geometry" />
        </mxCell>
        <mxCell id="anB-D9dIyMDaOdh5xR8B-57" value="+ id:int&#xa;+ Apartaments:List&lt;Apartament&gt;" style="text;strokeColor=none;fillColor=none;align=left;verticalAlign=top;spacingLeft=4;spacingRight=4;overflow=hidden;rotatable=0;points=[[0,0.5],[1,0.5]];portConstraint=eastwest;" vertex="1" parent="anB-D9dIyMDaOdh5xR8B-56">
          <mxGeometry y="26" width="330" height="54" as="geometry" />
        </mxCell>
        <mxCell id="anB-D9dIyMDaOdh5xR8B-58" value="" style="line;strokeWidth=1;fillColor=none;align=left;verticalAlign=middle;spacingTop=-1;spacingLeft=3;spacingRight=3;rotatable=0;labelPosition=right;points=[];portConstraint=eastwest;strokeColor=inherit;" vertex="1" parent="anB-D9dIyMDaOdh5xR8B-56">
          <mxGeometry y="80" width="330" height="8" as="geometry" />
        </mxCell>
        <mxCell id="anB-D9dIyMDaOdh5xR8B-59" value="+ createApartament(infoapart:infoApart): List&lt;Apartament&gt;" style="text;strokeColor=none;fillColor=none;align=left;verticalAlign=top;spacingLeft=4;spacingRight=4;overflow=hidden;rotatable=0;points=[[0,0.5],[1,0.5]];portConstraint=eastwest;" vertex="1" parent="anB-D9dIyMDaOdh5xR8B-56">
          <mxGeometry y="88" width="330" height="30" as="geometry" />
        </mxCell>
        <mxCell id="anB-D9dIyMDaOdh5xR8B-60" value="info" style="swimlane;fontStyle=0;childLayout=stackLayout;horizontal=1;startSize=26;fillColor=none;horizontalStack=0;resizeParent=1;resizeParentMax=0;resizeLast=0;collapsible=1;marginBottom=0;" vertex="1" parent="1">
          <mxGeometry x="860" y="1080" width="170" height="174" as="geometry" />
        </mxCell>
        <mxCell id="anB-D9dIyMDaOdh5xR8B-61" value="+ nameOfClient:string" style="text;strokeColor=none;fillColor=none;align=left;verticalAlign=top;spacingLeft=4;spacingRight=4;overflow=hidden;rotatable=0;points=[[0,0.5],[1,0.5]];portConstraint=eastwest;" vertex="1" parent="anB-D9dIyMDaOdh5xR8B-60">
          <mxGeometry y="26" width="170" height="26" as="geometry" />
        </mxCell>
        <mxCell id="anB-D9dIyMDaOdh5xR8B-62" value="+ countMoney:int" style="text;strokeColor=none;fillColor=none;align=left;verticalAlign=top;spacingLeft=4;spacingRight=4;overflow=hidden;rotatable=0;points=[[0,0.5],[1,0.5]];portConstraint=eastwest;" vertex="1" parent="anB-D9dIyMDaOdh5xR8B-60">
          <mxGeometry y="52" width="170" height="26" as="geometry" />
        </mxCell>
        <object label="+ numberOfRooms:int&#xa;" id="anB-D9dIyMDaOdh5xR8B-63">
          <mxCell style="text;strokeColor=none;fillColor=none;align=left;verticalAlign=top;spacingLeft=4;spacingRight=4;overflow=hidden;rotatable=0;points=[[0,0.5],[1,0.5]];portConstraint=eastwest;" vertex="1" parent="anB-D9dIyMDaOdh5xR8B-60">
            <mxGeometry y="78" width="170" height="32" as="geometry" />
          </mxCell>
        </object>
        <mxCell id="anB-D9dIyMDaOdh5xR8B-64" value="+ classOfApartments:string" style="text;strokeColor=none;fillColor=none;align=left;verticalAlign=top;spacingLeft=4;spacingRight=4;overflow=hidden;rotatable=0;points=[[0,0.5],[1,0.5]];portConstraint=eastwest;" vertex="1" parent="anB-D9dIyMDaOdh5xR8B-60">
          <mxGeometry y="110" width="170" height="32" as="geometry" />
        </mxCell>
        <mxCell id="anB-D9dIyMDaOdh5xR8B-65" value="+ timeOfLiving:uint" style="text;strokeColor=none;fillColor=none;align=left;verticalAlign=top;spacingLeft=4;spacingRight=4;overflow=hidden;rotatable=0;points=[[0,0.5],[1,0.5]];portConstraint=eastwest;" vertex="1" parent="anB-D9dIyMDaOdh5xR8B-60">
          <mxGeometry y="142" width="170" height="32" as="geometry" />
        </mxCell>
        <mxCell id="anB-D9dIyMDaOdh5xR8B-66" value="infoApart" style="swimlane;fontStyle=0;childLayout=stackLayout;horizontal=1;startSize=26;fillColor=none;horizontalStack=0;resizeParent=1;resizeParentMax=0;resizeLast=0;collapsible=1;marginBottom=0;" vertex="1" parent="1">
          <mxGeometry x="370" y="1220" width="170" height="122" as="geometry" />
        </mxCell>
        <object label="+ numberOfRooms:int&#xa;" id="anB-D9dIyMDaOdh5xR8B-67">
          <mxCell style="text;strokeColor=none;fillColor=none;align=left;verticalAlign=top;spacingLeft=4;spacingRight=4;overflow=hidden;rotatable=0;points=[[0,0.5],[1,0.5]];portConstraint=eastwest;" vertex="1" parent="anB-D9dIyMDaOdh5xR8B-66">
            <mxGeometry y="26" width="170" height="32" as="geometry" />
          </mxCell>
        </object>
        <mxCell id="anB-D9dIyMDaOdh5xR8B-68" value="+ classOfApartments:string" style="text;strokeColor=none;fillColor=none;align=left;verticalAlign=top;spacingLeft=4;spacingRight=4;overflow=hidden;rotatable=0;points=[[0,0.5],[1,0.5]];portConstraint=eastwest;" vertex="1" parent="anB-D9dIyMDaOdh5xR8B-66">
          <mxGeometry y="58" width="170" height="32" as="geometry" />
        </mxCell>
        <mxCell id="anB-D9dIyMDaOdh5xR8B-69" value="+ timeOfLiving:uint" style="text;strokeColor=none;fillColor=none;align=left;verticalAlign=top;spacingLeft=4;spacingRight=4;overflow=hidden;rotatable=0;points=[[0,0.5],[1,0.5]];portConstraint=eastwest;" vertex="1" parent="anB-D9dIyMDaOdh5xR8B-66">
          <mxGeometry y="90" width="170" height="32" as="geometry" />
        </mxCell>
        <mxCell id="anB-D9dIyMDaOdh5xR8B-70" value="" style="endArrow=open;startArrow=none;endFill=0;startFill=0;endSize=8;html=1;verticalAlign=bottom;labelBackgroundColor=none;strokeWidth=1;rounded=0;exitX=0.002;exitY=0.993;exitDx=0;exitDy=0;exitPerimeter=0;entryX=1;entryY=0;entryDx=0;entryDy=0;" edge="1" parent="1" source="anB-D9dIyMDaOdh5xR8B-51" target="anB-D9dIyMDaOdh5xR8B-52">
          <mxGeometry width="160" relative="1" as="geometry">
            <mxPoint x="320" y="740" as="sourcePoint" />
            <mxPoint x="480" y="740" as="targetPoint" />
          </mxGeometry>
        </mxCell>
        <mxCell id="anB-D9dIyMDaOdh5xR8B-71" value="" style="endArrow=open;startArrow=none;endFill=0;startFill=0;endSize=8;html=1;verticalAlign=bottom;labelBackgroundColor=none;strokeWidth=1;rounded=0;exitX=1.003;exitY=0.997;exitDx=0;exitDy=0;exitPerimeter=0;entryX=0;entryY=0;entryDx=0;entryDy=0;" edge="1" parent="1" source="anB-D9dIyMDaOdh5xR8B-51" target="anB-D9dIyMDaOdh5xR8B-44">
          <mxGeometry width="160" relative="1" as="geometry">
            <mxPoint x="686.16" y="860.004" as="sourcePoint" />
            <mxPoint x="641.84" y="884.34" as="targetPoint" />
          </mxGeometry>
        </mxCell>
        <mxCell id="anB-D9dIyMDaOdh5xR8B-72" value="" style="endArrow=none;startArrow=diamondThin;endFill=0;startFill=0;html=1;verticalAlign=bottom;labelBackgroundColor=none;strokeWidth=1;startSize=21;endSize=8;rounded=0;exitX=0.573;exitY=0.997;exitDx=0;exitDy=0;exitPerimeter=0;entryX=0.5;entryY=0;entryDx=0;entryDy=0;" edge="1" parent="1" source="anB-D9dIyMDaOdh5xR8B-47" target="anB-D9dIyMDaOdh5xR8B-60">
          <mxGeometry width="160" relative="1" as="geometry">
            <mxPoint x="886" y="1078.3300000000002" as="sourcePoint" />
            <mxPoint x="1046" y="1078.3300000000002" as="targetPoint" />
          </mxGeometry>
        </mxCell>
        <mxCell id="anB-D9dIyMDaOdh5xR8B-73" value="" style="endArrow=none;startArrow=diamondThin;endFill=0;startFill=0;html=1;verticalAlign=bottom;labelBackgroundColor=none;strokeWidth=1;startSize=21;endSize=8;rounded=0;exitX=0.467;exitY=1.012;exitDx=0;exitDy=0;exitPerimeter=0;entryX=0.5;entryY=0;entryDx=0;entryDy=0;" edge="1" parent="1" source="anB-D9dIyMDaOdh5xR8B-59" target="anB-D9dIyMDaOdh5xR8B-66">
          <mxGeometry width="160" relative="1" as="geometry">
            <mxPoint x="673.9979999999999" y="1140.0040000000001" as="sourcePoint" />
            <mxPoint x="690.85" y="1240.25" as="targetPoint" />
          </mxGeometry>
        </mxCell>
        <mxCell id="anB-D9dIyMDaOdh5xR8B-74" value="" style="endArrow=open;startArrow=none;endFill=0;startFill=0;endSize=8;html=1;verticalAlign=bottom;labelBackgroundColor=none;strokeWidth=1;rounded=0;exitX=0.5;exitY=1;exitDx=0;exitDy=0;entryX=0.5;entryY=0;entryDx=0;entryDy=0;" edge="1" parent="1" source="anB-D9dIyMDaOdh5xR8B-52" target="anB-D9dIyMDaOdh5xR8B-56">
          <mxGeometry width="160" relative="1" as="geometry">
            <mxPoint x="594.3199999999999" y="805.664" as="sourcePoint" />
            <mxPoint x="560" y="950" as="targetPoint" />
          </mxGeometry>
        </mxCell>
      </root>
    </mxGraphModel>
  </diagram>
</mxfile>
